<svg aria-hidden="true" style="position:absolute;width:0;height:0;overflow:hidden" xmlns="http://www.w3.org/2000/svg"><defs><symbol id="icon-music" viewBox="0 0 32 32"><path d="M30 0h2v23c0 2.761-3.134 5-7 5s-7-2.239-7-5 3.134-5 7-5c1.959 0 3.729.575 5 1.501V8l-16 3.556V27c0 2.761-3.134 5-7 5s-7-2.239-7-5 3.134-5 7-5c1.959 0 3.729.575 5 1.501V4l18-4z"/></symbol><symbol id="icon-video-camera" viewBox="0 0 32 32"><path d="M12 9a5 5 0 1 1 10.001.001A5 5 0 0 1 12 9zM0 9a5 5 0 1 1 10.001.001A5 5 0 0 1 0 9zm24 10v-3c0-1.1-.9-2-2-2H2c-1.1 0-2 .9-2 2v10c0 1.1.9 2 2 2h20c1.1 0 2-.9 2-2v-3l8 5V14l-8 5zm-4 5H4v-6h16v6z"/></symbol><symbol id="icon-arrow-up2" viewBox="0 0 32 32"><path d="m27.414 12.586-10-10a2 2 0 0 0-2.828 0l-10 10a2 2 0 1 0 2.828 2.828L14 8.828V28a2 2 0 1 0 4 0V8.828l6.586 6.586c.39.39.902.586 1.414.586s1.024-.195 1.414-.586a2 2 0 0 0 0-2.828z"/></symbol></defs></svg>